#N canvas -8 -8 1366 685 10;
#N canvas 57 177 1102 300 fourstroke 0;
#X obj 182 521 outlet~;
#X obj 19 26 inlet speed;
#X obj 19 49 swap 1;
#X obj 19 72 -;
#X obj 19 95 * 3;
#X obj 19 118 + 2;
#X obj 517 172 sig~;
#X obj 244 264 +~;
#X obj 244 287 -~ 0.75;
#X obj 244 310 cos~;
#X obj 243 382 *~;
#X obj 228 415 *~;
#X obj 227 449 +~ 1;
#X obj 182 497 /~;
#X obj 182 449 sig~ 1;
#X obj 273 332 vd~ b 5;
#X obj 259 356 +~;
#X obj 348 521 outlet~;
#X obj 410 264 +~;
#X obj 410 310 cos~;
#X obj 409 382 *~;
#X obj 394 415 *~;
#X obj 393 449 +~ 1;
#X obj 348 497 /~;
#X obj 348 449 sig~ 1;
#X obj 425 356 +~;
#X obj 517 520 outlet~;
#X obj 579 263 +~;
#X obj 579 309 cos~;
#X obj 578 381 *~;
#X obj 563 414 *~;
#X obj 562 448 +~ 1;
#X obj 517 496 /~;
#X obj 517 448 sig~ 1;
#X obj 594 355 +~;
#X obj 683 520 outlet~;
#X obj 745 263 +~;
#X obj 745 309 cos~;
#X obj 744 381 *~;
#X obj 729 414 *~;
#X obj 728 448 +~ 1;
#X obj 683 496 /~;
#X obj 683 448 sig~ 1;
#X obj 760 355 +~;
#X obj 296 95 delread~ a 5;
#X obj 539 125 inlet~;
#X obj 405 110 delread~ a 10;
#X obj 615 117 delread~ a 15;
#X obj 754 149 delread~ a 20;
#X obj 410 287 -~ 0.5;
#X obj 440 332 vd~ b 10;
#X obj 579 286 -~ 0.25;
#X obj 608 331 vd~ b 15;
#X obj 774 331 vd~ b 20;
#X obj 931 168 noise~;
#X obj 931 191 lop~ 20;
#X obj 931 214 lop~ 20;
#X obj 932 277 *~ 10;
#X obj 932 308 delwrite~ b 20;
#X obj 974 251 *~ 0.5;
#X obj 974 274 delwrite~ a 20;
#X connect 1 0 2 0;
#X connect 2 0 3 0;
#X connect 2 1 3 1;
#X connect 3 0 4 0;
#X connect 4 0 5 0;
#X connect 5 0 6 0;
#X connect 6 0 16 0;
#X connect 6 0 25 0;
#X connect 6 0 34 0;
#X connect 6 0 43 0;
#X connect 7 0 8 0;
#X connect 8 0 9 0;
#X connect 9 0 10 0;
#X connect 10 0 11 0;
#X connect 10 0 11 1;
#X connect 11 0 12 0;
#X connect 12 0 13 1;
#X connect 13 0 0 0;
#X connect 14 0 13 0;
#X connect 15 0 16 1;
#X connect 16 0 10 1;
#X connect 18 0 49 0;
#X connect 19 0 20 0;
#X connect 20 0 21 0;
#X connect 20 0 21 1;
#X connect 21 0 22 0;
#X connect 22 0 23 1;
#X connect 23 0 17 0;
#X connect 24 0 23 0;
#X connect 25 0 20 1;
#X connect 27 0 51 0;
#X connect 28 0 29 0;
#X connect 29 0 30 0;
#X connect 29 0 30 1;
#X connect 30 0 31 0;
#X connect 31 0 32 1;
#X connect 32 0 26 0;
#X connect 33 0 32 0;
#X connect 34 0 29 1;
#X connect 36 0 37 0;
#X connect 37 0 38 0;
#X connect 38 0 39 0;
#X connect 38 0 39 1;
#X connect 39 0 40 0;
#X connect 40 0 41 1;
#X connect 41 0 35 0;
#X connect 42 0 41 0;
#X connect 43 0 38 1;
#X connect 44 0 7 1;
#X connect 45 0 7 0;
#X connect 45 0 18 0;
#X connect 45 0 27 0;
#X connect 45 0 36 0;
#X connect 46 0 18 1;
#X connect 47 0 27 1;
#X connect 48 0 36 1;
#X connect 49 0 19 0;
#X connect 50 0 25 1;
#X connect 51 0 28 0;
#X connect 52 0 34 1;
#X connect 53 0 43 1;
#X connect 54 0 55 0;
#X connect 55 0 56 0;
#X connect 56 0 57 0;
#X connect 56 0 59 0;
#X connect 57 0 58 0;
#X connect 59 0 60 0;
#X restore 84 251 pd fourstroke engine;
#X obj 200 158 * 40;
#X obj 200 181 sig~;
#X obj 200 204 lop~ 0.8;
#X obj 200 227 phasor~;
#X obj 217 354 dac~;
#X obj 87 85 hsl 128 50 0 3.5 0 0 empty empty empty -2 -8 0 10 -262144
-1 -1 0 1;
#X floatatom 84 141 5 0 0 0 - - -, f 5;
#X obj 125 285 *~ 0.25;
#X obj 84 36 r velocity;
#X obj 343 218 *~ -0.5;
#X obj 343 241 *~ 2;
#X obj 343 264 *~;
#X obj 343 287 *~ 0.5;
#X obj 438 234 line~;
#X obj 438 188 del 50;
#X msg 438 211 0 50;
#X msg 496 211 1 50 \,;
#X obj 438 153 t b b;
#X obj 438 54 bng 15 250 50 0 empty empty empty 17 7 0 10 -262144 -1
-1;
#X obj 343 195 osc~;
#X obj 382 97 + 1;
#X obj 343 141 select 0 1 2;
#X obj 343 120 mod 3;
#X msg 343 163 420;
#X msg 374 163 460;
#X msg 405 163 500;
#X obj 343 97 f 0;
#X obj 438 29 r click;
#X obj 84 60 * 0.02;
#X connect 0 0 8 0;
#X connect 0 1 8 0;
#X connect 0 2 8 0;
#X connect 0 3 8 0;
#X connect 1 0 2 0;
#X connect 2 0 3 0;
#X connect 3 0 4 0;
#X connect 4 0 0 1;
#X connect 6 0 7 0;
#X connect 7 0 1 0;
#X connect 7 0 0 0;
#X connect 8 0 5 0;
#X connect 8 0 5 1;
#X connect 9 0 29 0;
#X connect 10 0 11 0;
#X connect 11 0 12 0;
#X connect 12 0 13 0;
#X connect 13 0 5 0;
#X connect 13 0 5 1;
#X connect 14 0 12 1;
#X connect 15 0 16 0;
#X connect 16 0 14 0;
#X connect 17 0 14 0;
#X connect 18 0 15 0;
#X connect 18 1 17 0;
#X connect 19 0 18 0;
#X connect 19 0 27 0;
#X connect 20 0 10 0;
#X connect 21 0 27 1;
#X connect 22 0 24 0;
#X connect 22 1 25 0;
#X connect 22 2 26 0;
#X connect 23 0 22 0;
#X connect 24 0 20 0;
#X connect 25 0 20 0;
#X connect 26 0 20 0;
#X connect 27 0 21 0;
#X connect 27 0 23 0;
#X connect 28 0 19 0;
#X connect 29 0 6 0;
