#N canvas 404 76 738 464 10;
#X obj 43 249 osc~;
#X obj 43 42 r velocity;
#X obj 43 313 *~;
#X floatatom 43 186 5 0 0 0 - - -, f 5;
#X obj 43 346 dac~;
#X obj 86 138 osc~;
#X obj 43 223 +~;
#X obj 86 189 *~;
#X floatatom 86 112 5 0 0 0 - - -, f 5;
#X obj 43 139 * 8;
#X obj 86 88 * 1.5;
#X msg 58 284 0.5;
#X obj 185 135 loadbang;
#X msg 128 295 0;
#X msg 101 165 70;
#X connect 0 0 2 0;
#X connect 1 0 9 0;
#X connect 1 0 10 0;
#X connect 2 0 4 0;
#X connect 2 0 4 1;
#X connect 3 0 6 0;
#X connect 5 0 7 0;
#X connect 6 0 0 0;
#X connect 7 0 6 1;
#X connect 8 0 5 0;
#X connect 9 0 3 0;
#X connect 10 0 8 0;
#X connect 11 0 2 1;
#X connect 12 0 11 0;
#X connect 12 0 14 0;
#X connect 13 0 2 1;
#X connect 14 0 7 1;
